<svg width="292" height="64" viewBox="0 0 292 64" fill="none" xmlns="http://www.w3.org/2000/svg">
<path fill-rule="evenodd" clip-rule="evenodd" d="M18.6665 49.6676C28.9757 49.6676 37.333 41.385 37.333 31.1678C37.333 20.9506 28.9757 12.668 18.6665 12.668C8.63934 12.668 0.458778 20.5036 0.0186374 30.3336H0.000115479V31.102L0 31.1678L0.000115479 31.2336V64H9.6667V47.6573L9.66589 47.6568L9.66613 31.3332L9.67223 31.3362C9.66941 31.259 9.66756 31.1816 9.6667 31.1039V30.899C9.72162 25.9757 13.7297 22.0015 18.666 22.0015C23.6366 22.0015 27.666 26.0309 27.666 31.0015C27.666 35.972 23.6366 40.0014 18.666 40.0014C18.5373 40.0014 18.4091 39.9987 18.2817 39.9933L15.299 49.3674C16.3913 49.5646 17.5168 49.6676 18.6665 49.6676Z" fill="white"/>
<rect x="40.657" y="12.7363" width="9.28691" height="36.8823" fill="white"/>
<circle cx="45.3004" cy="4.64346" r="4.64346" fill="white"/>
<mask id="path-4-outside-1_2_95" maskUnits="userSpaceOnUse" x="54.6328" y="0.939362" width="238" height="52" fill="black">
<rect fill="white" x="54.6328" y="0.939362" width="238" height="52"/>
<path d="M76.1783 15.7575C76.7305 15.7575 77.1783 16.2053 77.1783 16.7575V22.0303C77.1783 22.5825 76.7305 23.0303 76.1783 23.0303H56.6328C56.0805 23.0303 55.6328 22.5825 55.6328 22.0303V16.7575C55.6328 16.2053 56.0805 15.7575 56.6328 15.7575H76.1783ZM61.5646 50.6666C61.0123 50.6666 60.5646 50.2189 60.5646 49.6666V13.2348C60.5646 10.7045 61.0571 8.60602 62.0419 6.93936C63.0419 5.27269 64.4055 4.02269 66.1328 3.18936C67.8601 2.35603 69.8222 1.93936 72.0192 1.93936C73.504 1.93936 74.8601 2.053 76.0873 2.28027C76.8171 2.41376 77.437 2.5394 77.9472 2.65721C78.4633 2.77637 78.7645 3.29641 78.6421 3.81174L77.3823 9.11624C77.2477 9.68289 76.6575 10.0183 76.0876 9.89831C75.9709 9.87373 75.8496 9.84953 75.7237 9.82572C75.1783 9.71966 74.6177 9.66663 74.0419 9.66663C72.6177 9.66663 71.6252 9.99997 71.0646 10.6666C70.504 11.3181 70.2237 12.2348 70.2237 13.4166V49.6666C70.2237 50.2189 69.776 50.6666 69.2237 50.6666H61.5646Z"/>
<path d="M97.6157 51.3484C94.0854 51.3484 91.0324 50.5984 88.4567 49.0984C85.8961 47.5833 83.9188 45.4772 82.5248 42.7803C81.1309 40.0681 80.4339 36.9242 80.4339 33.3484C80.4339 29.7424 81.1309 26.5909 82.5248 23.8939C83.9188 21.1818 85.8961 19.0757 88.4567 17.5757C91.0324 16.0606 94.0854 15.303 97.6157 15.303C101.146 15.303 104.192 16.0606 106.752 17.5757C109.328 19.0757 111.313 21.1818 112.707 23.8939C114.101 26.5909 114.798 29.7424 114.798 33.3484C114.798 36.9242 114.101 40.0681 112.707 42.7803C111.313 45.4772 109.328 47.5833 106.752 49.0984C104.192 50.5984 101.146 51.3484 97.6157 51.3484ZM97.6612 43.8484C99.2673 43.8484 100.608 43.3939 101.684 42.4848C102.76 41.5606 103.57 40.303 104.116 38.7121C104.676 37.1212 104.957 35.3106 104.957 33.2803C104.957 31.25 104.676 29.4394 104.116 27.8484C103.57 26.2575 102.76 25 101.684 24.0757C100.608 23.1515 99.2673 22.6894 97.6612 22.6894C96.04 22.6894 94.6764 23.1515 93.5703 24.0757C92.4794 25 91.6536 26.2575 91.093 27.8484C90.5476 29.4394 90.2748 31.25 90.2748 33.2803C90.2748 35.3106 90.5476 37.1212 91.093 38.7121C91.6536 40.303 92.4794 41.5606 93.5703 42.4848C94.6764 43.3939 96.04 43.8484 97.6612 43.8484Z"/>
<path d="M136.866 51.3484C133.335 51.3484 130.282 50.5984 127.707 49.0984C125.146 47.5833 123.169 45.4772 121.775 42.7803C120.381 40.0681 119.684 36.9242 119.684 33.3484C119.684 29.7424 120.381 26.5909 121.775 23.8939C123.169 21.1818 125.146 19.0757 127.707 17.5757C130.282 16.0606 133.335 15.303 136.866 15.303C140.396 15.303 143.441 16.0606 146.002 17.5757C148.578 19.0757 150.563 21.1818 151.957 23.8939C153.351 26.5909 154.048 29.7424 154.048 33.3484C154.048 36.9242 153.351 40.0681 151.957 42.7803C150.563 45.4772 148.578 47.5833 146.002 49.0984C143.441 50.5984 140.396 51.3484 136.866 51.3484ZM136.911 43.8484C138.517 43.8484 139.858 43.3939 140.934 42.4848C142.01 41.5606 142.82 40.303 143.366 38.7121C143.926 37.1212 144.207 35.3106 144.207 33.2803C144.207 31.25 143.926 29.4394 143.366 27.8484C142.82 26.2575 142.01 25 140.934 24.0757C139.858 23.1515 138.517 22.6894 136.911 22.6894C135.29 22.6894 133.926 23.1515 132.82 24.0757C131.729 25 130.904 26.2575 130.343 27.8484C129.798 29.4394 129.525 31.25 129.525 33.2803C129.525 35.3106 129.798 37.1212 130.343 38.7121C130.904 40.303 131.729 41.5606 132.82 42.4848C133.926 43.3939 135.29 43.8484 136.911 43.8484Z"/>
<path d="M177.911 15.7575C178.463 15.7575 178.911 16.2053 178.911 16.7575V22.0303C178.911 22.5825 178.463 23.0303 177.911 23.0303H158.888C158.336 23.0303 157.888 22.5825 157.888 22.0303V16.7575C157.888 16.2053 158.336 15.7575 158.888 15.7575H177.911ZM162.661 8.39391C162.661 7.84162 163.109 7.39391 163.661 7.39391H171.343C171.895 7.39391 172.343 7.84162 172.343 8.39391V39.9393C172.343 40.8333 172.479 41.5303 172.752 42.0303C173.025 42.5151 173.404 42.856 173.888 43.053C174.388 43.25 174.964 43.3484 175.616 43.3484C176.07 43.3484 176.525 43.3106 176.979 43.2348C177.009 43.229 177.037 43.2232 177.066 43.2176C177.598 43.1112 178.115 43.4548 178.227 43.9864L179.359 49.3448C179.466 49.8494 179.171 50.3517 178.672 50.4794C178.331 50.5664 177.941 50.6591 177.502 50.7575C176.623 50.9696 175.555 51.0984 174.298 51.1439C171.964 51.2348 169.919 50.9242 168.161 50.2121C166.419 49.4999 165.063 48.3939 164.093 46.8939C163.123 45.3939 162.646 43.5 162.661 41.2121V8.39391Z"/>
<path d="M187.15 50.6666C186.598 50.6666 186.15 50.2189 186.15 49.6666V5.12118C186.15 4.5689 186.598 4.12118 187.15 4.12118H194.832C195.384 4.12118 195.832 4.5689 195.832 5.12118V21.4416C195.832 21.5408 195.912 21.6212 196.011 21.6212C196.082 21.6212 196.146 21.5798 196.175 21.5159C196.597 20.6105 197.195 19.691 197.968 18.7575C198.786 17.7727 199.847 16.9545 201.15 16.303C202.468 15.6363 204.104 15.303 206.059 15.303C208.604 15.303 210.953 15.9697 213.104 17.303C215.256 18.6212 216.976 20.6136 218.263 23.2803C219.551 25.9318 220.195 29.2575 220.195 33.2575C220.195 37.1515 219.566 40.4393 218.309 43.1212C217.066 45.7878 215.369 47.8106 213.218 49.1893C211.082 50.553 208.688 51.2348 206.036 51.2348C204.157 51.2348 202.559 50.9242 201.241 50.303C199.938 49.6818 198.869 48.9015 198.036 47.9621C197.247 47.0579 196.634 46.147 196.198 45.2292C196.154 45.1361 196.061 45.0757 195.958 45.0757C195.813 45.0757 195.695 45.1933 195.695 45.3383V49.6666C195.695 50.2189 195.248 50.6666 194.695 50.6666H187.15ZM195.627 33.2121C195.627 35.2878 195.915 37.0984 196.491 38.6439C197.066 40.1893 197.9 41.3939 198.991 42.2575C200.082 43.106 201.407 43.5303 202.968 43.5303C204.544 43.5303 205.877 43.0984 206.968 42.2348C208.059 41.356 208.885 40.1439 209.445 38.5984C210.021 37.0378 210.309 35.2424 210.309 33.2121C210.309 31.1969 210.029 29.4242 209.468 27.8939C208.907 26.3636 208.082 25.1666 206.991 24.303C205.9 23.4394 204.559 23.0075 202.968 23.0075C201.392 23.0075 200.059 23.4242 198.968 24.2575C197.892 25.0909 197.066 26.2727 196.491 27.803C195.915 29.3333 195.627 31.1363 195.627 33.2121Z"/>
<path d="M236.61 51.3257C234.383 51.3257 232.398 50.9393 230.655 50.1666C228.913 49.3787 227.534 48.2196 226.519 46.6893C225.519 45.1439 225.019 43.2196 225.019 40.9166C225.019 38.9772 225.375 37.3484 226.087 36.0303C226.799 34.7121 227.769 33.6515 228.996 32.8484C230.224 32.0454 231.618 31.4393 233.178 31.0303C234.754 30.6212 236.405 30.3333 238.133 30.1666C240.163 29.9545 241.799 29.7575 243.042 29.5757C244.284 29.3787 245.186 29.0909 245.746 28.7121C246.307 28.3333 246.587 27.7727 246.587 27.0303V26.8939C246.587 25.4545 246.133 24.3409 245.224 23.553C244.33 22.7651 243.057 22.3712 241.405 22.3712C239.663 22.3712 238.277 22.7575 237.246 23.5303C236.453 24.1133 235.867 24.813 235.487 25.6294C235.286 26.0604 234.86 26.3662 234.387 26.3278L227.382 25.7589C226.78 25.71 226.355 25.1414 226.53 24.5635C227.032 22.9032 227.832 21.4376 228.928 20.1666C230.262 18.606 231.981 17.4091 234.087 16.5757C236.208 15.7272 238.663 15.303 241.451 15.303C243.39 15.303 245.246 15.5303 247.019 15.9848C248.807 16.4394 250.39 17.1439 251.769 18.0984C253.163 19.053 254.262 20.2803 255.065 21.7803C255.868 23.2651 256.269 25.0454 256.269 27.1212V49.6666C256.269 50.2189 255.821 50.6666 255.269 50.6666H248.087C247.535 50.6666 247.087 50.2189 247.087 49.6666V45.9951C247.087 45.9015 247.011 45.8257 246.918 45.8257C246.854 45.8257 246.796 45.8613 246.767 45.9174C246.212 46.9706 245.478 47.9022 244.565 48.7121C243.625 49.5303 242.496 50.1742 241.178 50.6439C239.86 51.0984 238.337 51.3257 236.61 51.3257ZM239.383 44.6439C240.807 44.6439 242.065 44.3636 243.155 43.803C244.246 43.2272 245.102 42.4545 245.724 41.4848C246.345 40.5151 246.655 39.4166 246.655 38.1893V35.8526C246.655 35.2636 245.967 34.8537 245.405 35.0303C244.89 35.1818 244.307 35.3257 243.655 35.4621C243.004 35.5833 242.352 35.6969 241.701 35.803C241.049 35.8939 240.458 35.9772 239.928 36.053C238.792 36.2197 237.799 36.4848 236.951 36.8484C236.102 37.2121 235.443 37.7045 234.974 38.3257C234.504 38.9318 234.269 39.6893 234.269 40.5984C234.269 41.9166 234.746 42.9242 235.701 43.6212C236.671 44.303 237.898 44.6439 239.383 44.6439Z"/>
<path d="M272.462 4.12118C273.015 4.12118 273.462 4.5689 273.462 5.12118V49.6666C273.462 50.2189 273.015 50.6666 272.462 50.6666H264.78C264.228 50.6666 263.78 50.2189 263.78 49.6666V5.12118C263.78 4.5689 264.228 4.12118 264.78 4.12118H272.462Z"/>
<path d="M289.9 4.12118C290.452 4.12118 290.9 4.5689 290.9 5.12118V49.6666C290.9 50.2189 290.452 50.6666 289.9 50.6666H282.218C281.666 50.6666 281.218 50.2189 281.218 49.6666V5.12118C281.218 4.5689 281.666 4.12118 282.218 4.12118H289.9Z"/>
</mask>
<path d="M76.1783 15.7575C76.7305 15.7575 77.1783 16.2053 77.1783 16.7575V22.0303C77.1783 22.5825 76.7305 23.0303 76.1783 23.0303H56.6328C56.0805 23.0303 55.6328 22.5825 55.6328 22.0303V16.7575C55.6328 16.2053 56.0805 15.7575 56.6328 15.7575H76.1783ZM61.5646 50.6666C61.0123 50.6666 60.5646 50.2189 60.5646 49.6666V13.2348C60.5646 10.7045 61.0571 8.60602 62.0419 6.93936C63.0419 5.27269 64.4055 4.02269 66.1328 3.18936C67.8601 2.35603 69.8222 1.93936 72.0192 1.93936C73.504 1.93936 74.8601 2.053 76.0873 2.28027C76.8171 2.41376 77.437 2.5394 77.9472 2.65721C78.4633 2.77637 78.7645 3.29641 78.6421 3.81174L77.3823 9.11624C77.2477 9.68289 76.6575 10.0183 76.0876 9.89831C75.9709 9.87373 75.8496 9.84953 75.7237 9.82572C75.1783 9.71966 74.6177 9.66663 74.0419 9.66663C72.6177 9.66663 71.6252 9.99997 71.0646 10.6666C70.504 11.3181 70.2237 12.2348 70.2237 13.4166V49.6666C70.2237 50.2189 69.776 50.6666 69.2237 50.6666H61.5646Z" stroke="#BDFF00" stroke-width="2" mask="url(#path-4-outside-1_2_95)"/>
<path d="M97.6157 51.3484C94.0854 51.3484 91.0324 50.5984 88.4567 49.0984C85.8961 47.5833 83.9188 45.4772 82.5248 42.7803C81.1309 40.0681 80.4339 36.9242 80.4339 33.3484C80.4339 29.7424 81.1309 26.5909 82.5248 23.8939C83.9188 21.1818 85.8961 19.0757 88.4567 17.5757C91.0324 16.0606 94.0854 15.303 97.6157 15.303C101.146 15.303 104.192 16.0606 106.752 17.5757C109.328 19.0757 111.313 21.1818 112.707 23.8939C114.101 26.5909 114.798 29.7424 114.798 33.3484C114.798 36.9242 114.101 40.0681 112.707 42.7803C111.313 45.4772 109.328 47.5833 106.752 49.0984C104.192 50.5984 101.146 51.3484 97.6157 51.3484ZM97.6612 43.8484C99.2673 43.8484 100.608 43.3939 101.684 42.4848C102.76 41.5606 103.57 40.303 104.116 38.7121C104.676 37.1212 104.957 35.3106 104.957 33.2803C104.957 31.25 104.676 29.4394 104.116 27.8484C103.57 26.2575 102.76 25 101.684 24.0757C100.608 23.1515 99.2673 22.6894 97.6612 22.6894C96.04 22.6894 94.6764 23.1515 93.5703 24.0757C92.4794 25 91.6536 26.2575 91.093 27.8484C90.5476 29.4394 90.2748 31.25 90.2748 33.2803C90.2748 35.3106 90.5476 37.1212 91.093 38.7121C91.6536 40.303 92.4794 41.5606 93.5703 42.4848C94.6764 43.3939 96.04 43.8484 97.6612 43.8484Z" stroke="#BDFF00" stroke-width="2" mask="url(#path-4-outside-1_2_95)"/>
<path d="M136.866 51.3484C133.335 51.3484 130.282 50.5984 127.707 49.0984C125.146 47.5833 123.169 45.4772 121.775 42.7803C120.381 40.0681 119.684 36.9242 119.684 33.3484C119.684 29.7424 120.381 26.5909 121.775 23.8939C123.169 21.1818 125.146 19.0757 127.707 17.5757C130.282 16.0606 133.335 15.303 136.866 15.303C140.396 15.303 143.441 16.0606 146.002 17.5757C148.578 19.0757 150.563 21.1818 151.957 23.8939C153.351 26.5909 154.048 29.7424 154.048 33.3484C154.048 36.9242 153.351 40.0681 151.957 42.7803C150.563 45.4772 148.578 47.5833 146.002 49.0984C143.441 50.5984 140.396 51.3484 136.866 51.3484ZM136.911 43.8484C138.517 43.8484 139.858 43.3939 140.934 42.4848C142.01 41.5606 142.82 40.303 143.366 38.7121C143.926 37.1212 144.207 35.3106 144.207 33.2803C144.207 31.25 143.926 29.4394 143.366 27.8484C142.82 26.2575 142.01 25 140.934 24.0757C139.858 23.1515 138.517 22.6894 136.911 22.6894C135.29 22.6894 133.926 23.1515 132.82 24.0757C131.729 25 130.904 26.2575 130.343 27.8484C129.798 29.4394 129.525 31.25 129.525 33.2803C129.525 35.3106 129.798 37.1212 130.343 38.7121C130.904 40.303 131.729 41.5606 132.82 42.4848C133.926 43.3939 135.29 43.8484 136.911 43.8484Z" stroke="#BDFF00" stroke-width="2" mask="url(#path-4-outside-1_2_95)"/>
<path d="M177.911 15.7575C178.463 15.7575 178.911 16.2053 178.911 16.7575V22.0303C178.911 22.5825 178.463 23.0303 177.911 23.0303H158.888C158.336 23.0303 157.888 22.5825 157.888 22.0303V16.7575C157.888 16.2053 158.336 15.7575 158.888 15.7575H177.911ZM162.661 8.39391C162.661 7.84162 163.109 7.39391 163.661 7.39391H171.343C171.895 7.39391 172.343 7.84162 172.343 8.39391V39.9393C172.343 40.8333 172.479 41.5303 172.752 42.0303C173.025 42.5151 173.404 42.856 173.888 43.053C174.388 43.25 174.964 43.3484 175.616 43.3484C176.07 43.3484 176.525 43.3106 176.979 43.2348C177.009 43.229 177.037 43.2232 177.066 43.2176C177.598 43.1112 178.115 43.4548 178.227 43.9864L179.359 49.3448C179.466 49.8494 179.171 50.3517 178.672 50.4794C178.331 50.5664 177.941 50.6591 177.502 50.7575C176.623 50.9696 175.555 51.0984 174.298 51.1439C171.964 51.2348 169.919 50.9242 168.161 50.2121C166.419 49.4999 165.063 48.3939 164.093 46.8939C163.123 45.3939 162.646 43.5 162.661 41.2121V8.39391Z" stroke="#BDFF00" stroke-width="2" mask="url(#path-4-outside-1_2_95)"/>
<path d="M187.15 50.6666C186.598 50.6666 186.15 50.2189 186.15 49.6666V5.12118C186.15 4.5689 186.598 4.12118 187.15 4.12118H194.832C195.384 4.12118 195.832 4.5689 195.832 5.12118V21.4416C195.832 21.5408 195.912 21.6212 196.011 21.6212C196.082 21.6212 196.146 21.5798 196.175 21.5159C196.597 20.6105 197.195 19.691 197.968 18.7575C198.786 17.7727 199.847 16.9545 201.15 16.303C202.468 15.6363 204.104 15.303 206.059 15.303C208.604 15.303 210.953 15.9697 213.104 17.303C215.256 18.6212 216.976 20.6136 218.263 23.2803C219.551 25.9318 220.195 29.2575 220.195 33.2575C220.195 37.1515 219.566 40.4393 218.309 43.1212C217.066 45.7878 215.369 47.8106 213.218 49.1893C211.082 50.553 208.688 51.2348 206.036 51.2348C204.157 51.2348 202.559 50.9242 201.241 50.303C199.938 49.6818 198.869 48.9015 198.036 47.9621C197.247 47.0579 196.634 46.147 196.198 45.2292C196.154 45.1361 196.061 45.0757 195.958 45.0757C195.813 45.0757 195.695 45.1933 195.695 45.3383V49.6666C195.695 50.2189 195.248 50.6666 194.695 50.6666H187.15ZM195.627 33.2121C195.627 35.2878 195.915 37.0984 196.491 38.6439C197.066 40.1893 197.9 41.3939 198.991 42.2575C200.082 43.106 201.407 43.5303 202.968 43.5303C204.544 43.5303 205.877 43.0984 206.968 42.2348C208.059 41.356 208.885 40.1439 209.445 38.5984C210.021 37.0378 210.309 35.2424 210.309 33.2121C210.309 31.1969 210.029 29.4242 209.468 27.8939C208.907 26.3636 208.082 25.1666 206.991 24.303C205.9 23.4394 204.559 23.0075 202.968 23.0075C201.392 23.0075 200.059 23.4242 198.968 24.2575C197.892 25.0909 197.066 26.2727 196.491 27.803C195.915 29.3333 195.627 31.1363 195.627 33.2121Z" stroke="#BDFF00" stroke-width="2" mask="url(#path-4-outside-1_2_95)"/>
<path d="M236.61 51.3257C234.383 51.3257 232.398 50.9393 230.655 50.1666C228.913 49.3787 227.534 48.2196 226.519 46.6893C225.519 45.1439 225.019 43.2196 225.019 40.9166C225.019 38.9772 225.375 37.3484 226.087 36.0303C226.799 34.7121 227.769 33.6515 228.996 32.8484C230.224 32.0454 231.618 31.4393 233.178 31.0303C234.754 30.6212 236.405 30.3333 238.133 30.1666C240.163 29.9545 241.799 29.7575 243.042 29.5757C244.284 29.3787 245.186 29.0909 245.746 28.7121C246.307 28.3333 246.587 27.7727 246.587 27.0303V26.8939C246.587 25.4545 246.133 24.3409 245.224 23.553C244.33 22.7651 243.057 22.3712 241.405 22.3712C239.663 22.3712 238.277 22.7575 237.246 23.5303C236.453 24.1133 235.867 24.813 235.487 25.6294C235.286 26.0604 234.86 26.3662 234.387 26.3278L227.382 25.7589C226.78 25.71 226.355 25.1414 226.53 24.5635C227.032 22.9032 227.832 21.4376 228.928 20.1666C230.262 18.606 231.981 17.4091 234.087 16.5757C236.208 15.7272 238.663 15.303 241.451 15.303C243.39 15.303 245.246 15.5303 247.019 15.9848C248.807 16.4394 250.39 17.1439 251.769 18.0984C253.163 19.053 254.262 20.2803 255.065 21.7803C255.868 23.2651 256.269 25.0454 256.269 27.1212V49.6666C256.269 50.2189 255.821 50.6666 255.269 50.6666H248.087C247.535 50.6666 247.087 50.2189 247.087 49.6666V45.9951C247.087 45.9015 247.011 45.8257 246.918 45.8257C246.854 45.8257 246.796 45.8613 246.767 45.9174C246.212 46.9706 245.478 47.9022 244.565 48.7121C243.625 49.5303 242.496 50.1742 241.178 50.6439C239.86 51.0984 238.337 51.3257 236.61 51.3257ZM239.383 44.6439C240.807 44.6439 242.065 44.3636 243.155 43.803C244.246 43.2272 245.102 42.4545 245.724 41.4848C246.345 40.5151 246.655 39.4166 246.655 38.1893V35.8526C246.655 35.2636 245.967 34.8537 245.405 35.0303C244.89 35.1818 244.307 35.3257 243.655 35.4621C243.004 35.5833 242.352 35.6969 241.701 35.803C241.049 35.8939 240.458 35.9772 239.928 36.053C238.792 36.2197 237.799 36.4848 236.951 36.8484C236.102 37.2121 235.443 37.7045 234.974 38.3257C234.504 38.9318 234.269 39.6893 234.269 40.5984C234.269 41.9166 234.746 42.9242 235.701 43.6212C236.671 44.303 237.898 44.6439 239.383 44.6439Z" stroke="#BDFF00" stroke-width="2" mask="url(#path-4-outside-1_2_95)"/>
<path d="M272.462 4.12118C273.015 4.12118 273.462 4.5689 273.462 5.12118V49.6666C273.462 50.2189 273.015 50.6666 272.462 50.6666H264.78C264.228 50.6666 263.78 50.2189 263.78 49.6666V5.12118C263.78 4.5689 264.228 4.12118 264.78 4.12118H272.462Z" stroke="#BDFF00" stroke-width="2" mask="url(#path-4-outside-1_2_95)"/>
<path d="M289.9 4.12118C290.452 4.12118 290.9 4.5689 290.9 5.12118V49.6666C290.9 50.2189 290.452 50.6666 289.9 50.6666H282.218C281.666 50.6666 281.218 50.2189 281.218 49.6666V5.12118C281.218 4.5689 281.666 4.12118 282.218 4.12118H289.9Z" stroke="#BDFF00" stroke-width="2" mask="url(#path-4-outside-1_2_95)"/>
</svg>
